<?xml version="1.0" standalone="no"?>
<!DOCTYPE svg PUBLIC "-//W3C//DTD SVG 20010904//EN"
 "http://www.w3.org/TR/2001/REC-SVG-20010904/DTD/svg10.dtd">
<svg version="1.0" xmlns="http://www.w3.org/2000/svg"
 width="1000.000000pt" height="947.000000pt" viewBox="0 0 1000.000000 947.000000"
 preserveAspectRatio="xMidYMid meet">

<g transform="translate(0.000000,947.000000) scale(0.100000,-0.100000)"
fill="#000000" stroke="none">
<path d="M3945 6604 c-60 -15 -157 -50 -210 -77 -169 -84 -360 -250 -459 -401
-45 -68 -491 -987 -510 -1051 -3 -12 2 -37 14 -59 l19 -39 -42 -81 -42 -81
-51 3 c-33 2 -54 -1 -61 -10 -6 -7 -45 -87 -88 -178 -89 -189 -89 -192 -10
-253 64 -48 363 -196 478 -236 95 -33 144 -38 169 -18 18 14 168 329 168 353
0 9 -13 29 -30 46 -16 16 -30 37 -30 46 1 9 18 49 38 88 l37 72 108 -50 c105
-48 110 -50 145 -36 31 11 42 26 76 94 l41 81 78 -36 78 -36 -347 -540 c-191
-297 -357 -560 -368 -585 -33 -71 -30 -196 7 -275 35 -76 110 -146 185 -177
l57 -23 1619 -3 c1437 -2 1626 -1 1680 13 69 18 126 52 174 104 32 35 34 36
98 32 54 -2 74 1 120 24 67 33 92 65 149 191 50 110 58 180 30 247 -33 79 -59
97 -365 242 l-291 139 -642 1000 c-383 597 -660 1019 -687 1046 -72 73 -127
95 -240 95 -83 0 -102 -3 -150 -27 -30 -15 -72 -44 -92 -65 -20 -21 -161 -231
-313 -468 -152 -236 -278 -431 -280 -433 -5 -6 -225 101 -225 108 0 5 11 32
25 62 46 100 34 123 -105 193 -58 29 -118 67 -134 84 -27 28 -28 34 -23 89 5
65 64 213 119 304 82 135 196 260 283 309 57 32 69 53 63 104 -6 50 -47 70
-151 72 -51 1 -101 -1 -112 -3z m173 -82 c8 -6 1 -13 -23 -25 -53 -25 -175
-147 -245 -244 -105 -147 -191 -350 -192 -453 -1 -100 37 -144 190 -220 57
-28 101 -54 99 -58 -2 -4 -88 -186 -192 -404 -104 -219 -194 -398 -200 -398
-7 0 -63 24 -126 54 -89 42 -118 52 -132 44 -10 -5 -41 -58 -69 -116 -59 -126
-64 -169 -24 -211 l26 -27 -64 -137 -65 -136 -52 15 c-124 37 -421 180 -493
238 l-28 22 65 135 64 135 34 -3 c60 -7 91 23 148 142 56 117 62 149 31 165
-11 6 -20 15 -20 21 0 9 333 715 427 904 128 258 384 474 653 550 51 15 168
19 188 7z m1037 -350 c22 -11 54 -35 72 -54 30 -32 1235 -1900 1229 -1906 -2
-1 -54 22 -117 52 -63 30 -348 166 -634 301 -877 416 -1175 557 -1303 620
l-122 60 241 375 c326 507 325 506 366 531 87 54 189 62 268 21z m-640 -1137
c275 -131 587 -279 694 -330 l195 -92 0 -57 c1 -31 -1 -56 -3 -56 -7 0 -306
132 -362 161 -31 15 -85 48 -121 72 -68 47 -128 81 -128 73 0 -14 211 -140
312 -187 114 -52 148 -76 91 -63 -16 3 -109 33 -208 66 -185 62 -306 116 -385
172 -57 41 -83 54 -50 27 60 -51 189 -122 308 -169 124 -50 376 -127 496 -152
38 -8 74 -24 103 -46 96 -74 184 -114 438 -200 220 -76 354 -101 382 -73 9 9
123 -42 438 -192 461 -219 467 -223 481 -307 4 -23 3 -42 -1 -42 -19 0 -354
163 -564 275 -129 69 -236 123 -238 121 -2 -2 56 -36 129 -76 73 -40 160 -89
192 -109 32 -20 136 -77 230 -127 93 -50 175 -98 180 -106 5 -9 6 -23 2 -33
-5 -14 -15 -17 -52 -12 -54 6 -54 5 19 -25 l58 -24 -28 -54 c-34 -65 -96 -104
-154 -97 -31 4 -648 290 -884 410 -44 22 -84 42 -90 43 -10 2 -439 206 -527
250 -38 19 -48 28 -37 35 56 35 270 -60 465 -207 104 -79 135 -96 69 -39 -147
128 -426 275 -521 275 -12 0 -29 -7 -37 -15 -13 -13 -30 -8 -139 45 -68 32
-140 72 -160 87 -116 90 -351 243 -533 347 -165 94 -286 147 -352 153 -43 5
-76 18 -137 53 -45 26 -97 53 -116 61 -19 8 -68 31 -109 51 -41 21 -76 36 -78
35 -5 -5 123 -74 207 -111 41 -18 94 -44 116 -57 42 -24 42 -25 24 -47 l-18
-22 -174 81 c-95 45 -177 85 -182 90 -9 8 9 50 139 321 l46 98 37 -19 c20 -10
262 -126 537 -256z m-210 -322 c84 -26 294 -135 455 -236 168 -106 387 -252
335 -225 -5 3 -30 15 -55 26 -300 137 -885 424 -885 434 0 14 48 26 80 20 11
-2 43 -11 70 -19z m1015 -663 c685 -326 1301 -619 1370 -652 68 -32 126 -61
129 -63 9 -10 -45 -57 -95 -81 l-52 -25 -1635 0 -1635 0 -46 22 c-61 28 -122
99 -141 162 -19 63 -18 99 3 159 9 26 174 292 367 591 l349 544 71 -32 c38
-18 630 -299 1315 -625z m220 478 c0 -32 61 -88 134 -122 71 -34 274 -102 281
-94 3 2 -35 17 -83 32 -117 38 -254 110 -292 153 -17 19 -30 37 -27 39 7 7
706 -330 701 -338 -10 -16 -103 -8 -186 16 -173 51 -355 115 -432 152 -125 61
-223 162 -209 215 5 16 9 16 59 -9 35 -17 54 -32 54 -44z"/>
<path d="M4060 5209 c60 -37 121 -92 112 -101 -5 -5 -52 5 -108 21 -54 16
-108 32 -119 36 -53 15 80 -40 183 -76 65 -23 140 -57 167 -76 37 -26 24 -11
-49 58 -91 86 -186 158 -211 159 -5 0 6 -10 25 -21z"/>
<path d="M5050 4430 c19 -11 40 -19 45 -19 6 0 -6 8 -25 19 -19 11 -39 19 -45
19 -5 0 6 -8 25 -19z"/>
<path d="M5111 4406 c2 -2 63 -35 134 -73 72 -39 219 -121 328 -182 231 -130
520 -276 785 -397 103 -47 194 -88 202 -91 35 -12 -51 35 -120 66 -201 90
-690 338 -810 411 -150 91 -559 301 -519 266z"/>
<path d="M6102 4109 c-45 -17 -37 -60 22 -111 50 -44 472 -248 511 -247 11 0
2 6 -20 13 -44 14 -423 206 -466 237 -15 10 -34 30 -44 45 -14 22 -15 28 -3
40 29 29 147 -19 234 -95 23 -20 90 -65 148 -101 177 -108 187 -114 181 -127
-2 -7 0 -13 5 -13 6 0 10 6 10 14 0 14 -7 19 -190 139 -63 41 -133 92 -155
112 -40 37 -137 88 -185 98 -14 3 -35 1 -48 -4z"/>
<path d="M6310 4076 c0 -2 7 -7 16 -10 8 -3 12 -2 9 4 -6 10 -25 14 -25 6z"/>
<path d="M6350 4056 c0 -2 7 -7 16 -10 8 -3 12 -2 9 4 -6 10 -25 14 -25 6z"/>
<path d="M6162 4037 c5 -15 78 -51 86 -42 9 9 -20 31 -56 43 -26 9 -33 9 -30
-1z"/>
<path d="M6748 3683 c7 -3 16 -2 19 1 4 3 -2 6 -13 5 -11 0 -14 -3 -6 -6z"/>
<path d="M6845 3656 c39 -14 90 -36 115 -50 25 -14 50 -26 55 -26 6 0 -14 14
-44 31 -56 32 -153 69 -180 69 -9 0 16 -11 54 -24z"/>
<path d="M6620 3635 c25 -13 50 -24 55 -24 6 0 -10 11 -35 24 -25 13 -49 24
-55 24 -5 0 10 -11 35 -24z"/>
<path d="M6711 3596 c10 -9 69 -36 69 -32 0 6 -55 36 -66 36 -4 0 -5 -2 -3 -4z"/>
<path d="M3257 2854 c-4 -4 -7 -94 -7 -199 0 -173 2 -194 18 -208 22 -20 112
-23 130 -5 9 9 12 70 12 215 l0 203 -25 0 -25 0 -2 -192 c-3 -185 -4 -193 -23
-193 -19 0 -20 8 -25 190 -5 182 -6 190 -25 193 -12 2 -24 0 -28 -4z"/>
<path d="M3487 2853 c-4 -3 -7 -100 -7 -215 l0 -208 25 0 25 0 0 133 c0 75 4
126 9 117 4 -8 18 -68 31 -132 23 -118 23 -118 51 -118 l29 0 0 216 0 215 -22
-3 c-23 -3 -23 -6 -23 -135 0 -73 -3 -129 -6 -125 -3 4 -14 48 -23 97 -29 152
-34 165 -60 165 -12 0 -26 -3 -29 -7z"/>
<path d="M3727 2853 c-4 -3 -7 -100 -7 -215 l0 -208 68 0 c103 0 102 -1 102
213 0 168 -1 177 -22 197 -17 15 -35 20 -78 20 -31 0 -60 -3 -63 -7z m101
-210 c-3 -166 -3 -168 -25 -171 l-23 -3 0 170 0 171 25 0 25 0 -2 -167z"/>
<path d="M3960 2645 l0 -215 65 0 c58 0 65 2 65 20 0 17 -7 20 -40 20 l-40 0
0 75 0 75 35 0 c31 0 35 3 35 25 0 22 -4 25 -35 25 l-35 0 0 70 0 70 40 0 c36
0 40 3 40 25 0 24 -2 25 -65 25 l-65 0 0 -215z"/>
<path d="M4157 2853 c-4 -3 -7 -100 -7 -215 l0 -208 30 0 30 0 0 90 c0 50 4
90 9 90 12 0 17 -16 31 -103 12 -74 14 -77 40 -77 l27 0 -18 93 c-15 79 -15
94 -3 108 10 11 14 42 14 106 0 110 -9 123 -92 123 -30 0 -58 -3 -61 -7z m98
-123 c0 -70 -1 -75 -22 -78 -22 -3 -23 -1 -23 78 0 79 1 81 23 78 21 -3 22 -8
22 -78z"/>
<path d="M4510 2645 l0 -215 25 0 25 0 1 143 2 142 12 -85 c7 -47 15 -111 19
-142 7 -55 9 -58 35 -58 l28 0 17 142 c9 78 19 144 21 147 3 2 5 -62 5 -142
l0 -147 25 0 25 0 0 215 0 215 -39 0 c-45 0 -41 11 -61 -175 -18 -161 -22
-162 -41 -10 -9 77 -18 150 -18 163 -1 19 -6 22 -41 22 l-40 0 0 -215z"/>
<path d="M4855 2828 c-6 -39 -45 -367 -45 -385 0 -7 11 -13 24 -13 24 0 36 28
36 86 0 19 5 24 24 24 26 0 36 -21 36 -77 0 -30 3 -33 31 -33 28 0 30 2 25 28
-3 15 -15 106 -26 202 -11 96 -23 181 -25 188 -2 6 -20 12 -39 12 -32 0 -36
-3 -41 -32z m57 -183 c2 -50 0 -60 -14 -63 -21 -4 -22 11 -11 123 6 63 8 66
14 35 4 -19 9 -62 11 -95z"/>
<path d="M5050 2645 l0 -215 25 0 25 0 0 215 0 215 -25 0 -25 0 0 -215z"/>
<path d="M5177 2853 c-4 -3 -7 -100 -7 -215 l0 -208 25 0 25 0 1 133 c1 146 5
144 40 -25 21 -107 22 -108 50 -108 l29 0 0 216 0 215 -22 -3 c-22 -3 -23 -8
-28 -133 l-5 -130 -23 115 c-13 63 -26 123 -28 133 -5 17 -44 24 -57 10z"/>
<path d="M5400 2835 c0 -20 5 -25 25 -25 l25 0 0 -190 0 -190 30 0 30 0 0 190
0 190 26 0 c21 0 25 4 22 23 -3 20 -9 22 -80 25 -78 3 -78 3 -78 -23z"/>
<path d="M5620 2645 l0 -215 65 0 c58 0 65 2 65 20 0 17 -7 20 -40 20 l-40 0
0 75 0 75 35 0 c31 0 35 3 35 25 0 22 -4 25 -35 25 l-35 0 0 70 0 70 40 0 c36
0 40 3 40 25 0 24 -2 25 -65 25 l-65 0 0 -215z"/>
<path d="M5817 2853 c-4 -3 -7 -100 -7 -215 l0 -208 25 0 25 0 1 133 c0 147 5
145 39 -20 23 -112 23 -113 52 -113 l28 0 0 216 0 215 -22 -3 c-23 -3 -23 -6
-23 -135 0 -73 -3 -129 -6 -125 -3 4 -14 48 -23 97 -29 152 -34 165 -60 165
-12 0 -26 -3 -29 -7z"/>
<path d="M6096 2852 c-2 -4 -14 -86 -25 -182 -12 -96 -23 -190 -26 -207 -6
-31 -4 -33 24 -33 29 0 30 2 33 53 3 48 5 52 28 52 21 0 25 -5 28 -30 6 -63
11 -75 37 -75 14 0 25 5 25 11 0 14 -38 335 -46 382 -5 34 -8 37 -39 37 -19 0
-36 -3 -39 -8z m48 -179 c7 -90 7 -93 -14 -93 -20 0 -21 3 -15 73 7 77 14 122
19 116 2 -2 7 -46 10 -96z"/>
<path d="M6280 2645 l0 -215 25 0 25 0 1 133 1 132 18 -75 c10 -41 23 -101 30
-132 11 -55 13 -58 41 -58 l29 0 0 216 0 215 -22 -3 c-22 -3 -23 -7 -28 -138
l-5 -135 -13 67 c-7 37 -19 98 -28 137 -15 68 -17 71 -45 71 l-29 0 0 -215z"/>
<path d="M6537 2842 c-15 -16 -17 -45 -17 -199 0 -162 2 -182 18 -196 22 -20
102 -23 120 -5 7 7 12 36 12 65 0 50 -2 53 -24 53 -22 0 -25 -5 -28 -42 -2
-30 -8 -43 -18 -43 -13 0 -15 27 -18 168 -2 157 -1 168 15 165 13 -2 19 -14
21 -41 3 -32 7 -37 28 -37 22 0 24 4 24 48 0 35 -5 54 -18 65 -26 23 -94 22
-115 -1z"/>
<path d="M6740 2645 l0 -215 65 0 c58 0 65 2 65 20 0 17 -7 20 -40 20 l-40 0
0 75 0 75 35 0 c31 0 35 3 35 25 0 22 -4 25 -35 25 l-35 0 0 70 0 70 40 0 c36
0 40 3 40 25 0 24 -2 25 -65 25 l-65 0 0 -215z"/>
</g>
</svg>
